<?xml version="1.0" encoding="UTF-8" standalone="no"?>
<!-- Created with Inkscape (http://www.inkscape.org/) -->

<svg
   version="1.1"
   id="svg2"
   width="816"
   height="1056"
   viewBox="0 0 816 1056"
   sodipodi:docname="sadajr2blogbackground.ai"
   xmlns:inkscape="http://www.inkscape.org/namespaces/inkscape"
   xmlns:sodipodi="http://sodipodi.sourceforge.net/DTD/sodipodi-0.dtd"
   xmlns:xlink="http://www.w3.org/1999/xlink"
   xmlns="http://www.w3.org/2000/svg"
   xmlns:svg="http://www.w3.org/2000/svg">
  <defs
     id="defs6">
    <clipPath
       clipPathUnits="userSpaceOnUse"
       id="clipPath16">
      <path
         d="M 0,16.143 H 612 V 776 H 0 Z"
         id="path14" />
    </clipPath>
    <clipPath
       clipPathUnits="userSpaceOnUse"
       id="clipPath32">
      <path
         d="M 0,792 H 612 V 0 H 0 Z"
         id="path30" />
    </clipPath>
  </defs>
  <sodipodi:namedview
     id="namedview4"
     pagecolor="#ebfff3"
     bordercolor="#383838"
     borderopacity="0.25"
     inkscape:showpageshadow="2"
     inkscape:pageopacity="0.0"
     inkscape:pagecheckerboard="0"
     inkscape:deskcolor="#d1d1d1" />
  <g
     id="g8"
     inkscape:groupmode="layer"
     inkscape:label="sadajr2blogbackground"
     transform="matrix(1.3333333,0,0,-1.3333333,0,1056)">
    <g
       id="g10">
      <g
         id="g12"
         clip-path="url(#clipPath16)">
        <g
           id="g18">
          <g
             id="g20"
             transform="matrix(636.83917,0,0,759.85638,-12,16.143616)">
          </g>
        </g>
      </g>
    </g>
    <path
       d="M 0,0 H 612 V 792 H 0 Z"
       style="fill:#2ecc71;fill-opacity:0;fill-rule:nonzero;stroke:none"
       id="path24" />
    <g
       id="g26">
      <g
         id="g28"
         clip-path="url(#clipPath32)">
        <g
           id="g34"
           transform="translate(512.0732,604.0469)">
          <path
             d="m 0,0 c 0,0 53.744,-74.383 33.408,-131.792 0,0 11.21,-39.501 7.931,-39.263 0,0 -19.098,-34.095 -7.36,-63.458 0,0 15.684,-35.994 -11.652,-78.465 -1.025,-1.591 -1.838,-2.835 -2.984,-4.445 0,0 -0.748,-1.359 -1.227,-2.368 -2.728,-5.744 -12.396,-25.626 -14.857,-42.078 0,0 -5.32,-50.077 -13.351,-67.217 0,0 -5.3,-14.174 -7.979,-25.871 0,0 -16.935,-76.141 -60.747,-74.822 0,0 -140.535,22.456 -169.312,116.253 0,0 -112.09,215.991 -72.717,273.653 C -281.473,-82.21 -59.197,86.404 0,0"
             style="fill:#ebfff3;fill-opacity:1;fill-rule:nonzero;stroke:none"
             id="path36" />
        </g>
        <g
           id="g38"
           transform="translate(207.1699,315.873)">
          <path
             d="m 0,0 c 0,0 -39.426,129.408 -79.931,116.802 -40.505,-12.606 -95.172,-12.39 15.452,-168.37 0,0 4.527,-34.727 -7.851,-61.125 0,0 80.263,-47.463 140.51,-166.595 0,0 42.034,33.456 65.514,35.946 0,0 8.894,0.014 31.11,13.39 0,0 -167.035,154.545 -164.804,229.952"
             style="fill:#ebfff3;fill-opacity:1;fill-rule:nonzero;stroke:none"
             id="path40" />
        </g>
        <g
           id="g42"
           transform="translate(427.124,403.4521)">
          <path
             d="m 0,0 c 0,0 -25.968,32.483 -115.469,-9.834 -1.948,-0.921 -4.045,-1.894 -6.124,-2.571 0,0 -2.047,-0.898 -5.098,-1.352 -9.392,-1.402 -26.519,-1.446 -10.036,21.491 21.839,30.39 138.684,100.052 146.412,54.68 0,0 19.243,-83.918 -9.685,-62.414"
             style="fill:#383838;fill-opacity:1;fill-rule:nonzero;stroke:none"
             id="path44" />
        </g>
        <g
           id="g46"
           transform="translate(305.834,364.3906)">
          <path
             d="m 0,0 c 0,0 -2.732,-8.948 -10.68,-7.812 -7.947,1.137 -30.773,26.886 -0.028,17.79 0,0 15.097,-2.775 46.448,14.662 0,0 46.42,32.452 68.854,2.006 0,0 -22.772,23 -67.149,-6.5 C 37.445,20.146 9.788,3.913 0,0"
             style="fill:#383838;fill-opacity:1;fill-rule:nonzero;stroke:none"
             id="path48" />
        </g>
        <g
           id="g50"
           transform="translate(480.2842,391.4434)">
          <path
             d="M 0,0 C 0,0 43.268,36.592 62.289,15.136 62.289,15.136 46.719,33.75 0,0"
             style="fill:#383838;fill-opacity:1;fill-rule:nonzero;stroke:none"
             id="path52" />
        </g>
        <g
           id="g54"
           transform="translate(221.8604,317.2881)">
          <path
             d="M 0,0 C 0,0 57.12,-99.949 182.819,-85.663 L 68.991,-119.769 -6.255,-27.293 Z"
             style="fill:#ea2f2f;fill-opacity:1;fill-rule:nonzero;stroke:none"
             id="path56" />
        </g>
        <g
           id="g58"
           transform="translate(191.5059,308.6836)">
          <path
             d="m 0,0 c 0,0 10.734,-107.616 58.619,-149.365 47.885,-41.749 131.795,-114.324 195.132,-90.879 0,0 36.339,8.6 43.283,50.098 0,0 7.401,36.777 8.964,43.6 0,0 -14.071,-61.408 -51.313,-67.238 0,0 -88.305,-18.237 -122.24,66.481 0,0 -24.167,44.523 14.559,36.676 0,0 52.099,-9.516 78.801,9.468 0.769,0.547 0.957,0.905 1.682,1.5 0,0 0.878,0.981 1.883,1.655 1.554,1.044 4.754,1.862 10.976,-0.731 0.64,-0.267 -0.237,0.127 0.468,-0.216 0,0 3.09,-1.129 5.629,-1.579 8.744,-1.554 29.347,-3.352 39.866,11.33 l 27.261,13.759 c 0,0 2.438,-0.559 8.926,-3.584 0,0 1.807,19.079 6.173,31.415 0,0 -10.956,-16.469 -24.115,-13.454 l -57.113,-0.763 -19.809,-10.337 -7.909,1.3 C 65.504,-141.709 30.215,17.699 30.215,17.699"
             style="fill:#383838;fill-opacity:1;fill-rule:nonzero;stroke:none"
             id="path60" />
        </g>
        <g
           id="g62"
           transform="translate(473.3447,459.0972)">
          <path
             d="m 0,0 c -0.181,0.827 -0.504,1.718 -0.679,2.913 0,0 -0.496,2.647 0.395,6.493 1.616,6.98 7.851,15.368 30.141,7.285 0,0 36.482,-11.966 46.003,-26.857 0.635,-0.992 1.957,-2.952 2.333,-3.968 0,0 0.402,-0.694 1.51,-3.158 2.508,-5.579 4.503,-15.338 -9.194,-19.62 -1.185,-0.37 -1.38,-0.354 -2.81,-0.636 0,0 -2.243,-0.173 -4.239,-0.024 -8.787,0.652 -34.201,0.825 -52.344,-16.335 0,0 -18.184,-18.916 -14.103,7.848 0,0 5.582,34.152 2.987,46.059"
             style="fill:#383838;fill-opacity:1;fill-rule:nonzero;stroke:none"
             id="path64" />
        </g>
        <g
           id="g66"
           transform="translate(494.2969,299.9492)">
          <path
             d="m 0,0 c -0.657,1.71 -0.848,3.015 -1.822,4.403 0,0 -1.073,2.422 -2.764,4.378 -5.178,5.986 -21.89,10.539 -72.264,-51.123 -1.854,-2.27 -2.57,-3.192 -4.516,-5.644 0,0 -1.655,-2.795 -1.969,-4.841 -1.138,-7.439 -0.209,-23.995 32.897,-17.635 0,0 7.718,-0.077 17.874,-6.318 2.481,-1.525 10.103,-5.907 13.351,-6.651 0,0 2.431,-0.965 7.063,-0.337 14.247,1.933 41.064,11.128 23.01,53.976 0,0 -5.714,10.884 -7.866,13.429 0,0 -0.177,9.034 -2.994,16.363"
             style="fill:#ea2f2f;fill-opacity:1;fill-rule:nonzero;stroke:none"
             id="path68" />
        </g>
        <g
           id="g70"
           transform="translate(492.7471,186.1396)">
          <path
             d="m 0,0 c 5.413,20.646 -11.97,8.215 -11.97,8.215 -5.029,-3.294 -21.252,-12.912 -21.252,-12.912 -18.656,11.114 -81.321,-17.616 -81.321,-17.616 -4.942,-3.656 2.611,-9.49 2.611,-9.49 3.354,-2.169 10.888,-5.631 17.435,-8.534 3.435,-1.951 12.809,-6.703 24.308,-7.785 2.349,-0.222 4.195,-0.377 5.671,-0.478 C -0.282,-55.451 0,0 0,0"
             style="fill:#ea2f2f;fill-opacity:1;fill-rule:nonzero;stroke:none"
             id="path72" />
        </g>
        <g
           id="g74"
           transform="translate(500.7012,190.1172)">
          <path
             d="m 0,0 c -0.733,-1.419 -2.063,-2.506 -3.082,-5.096 0,0 -0.801,-1.993 -1.981,-5.553 -1.315,-3.977 -2.916,-9.098 -3.8,-12.955 0,0 -3.035,-24.439 -33.151,-34.979 0,0 -55.955,-22.573 -90.355,24.295 0,0 -7.585,9.433 7.807,16.164 0,0 15.687,10.256 40.533,11.231 0,0 44.235,3.329 61.884,17.11 0,0 25.496,17.242 24.551,-2.547 C 2.406,7.67 2.201,4.255 0,0 M -24.662,14.898 C -32.385,10.055 -44.691,7.495 -53.558,6.205 -59.824,5.294 -64.373,5.018 -64.373,5.018 -71.754,4.144 -80.947,2.762 -84.943,2.55 c -21.81,-1.158 -42.442,-12.846 -42.442,-12.846 -52.909,-29.426 29.061,-58.98 29.061,-58.98 24.033,-7.046 54.372,4.468 54.372,4.468 37.01,11.526 38.308,44.058 38.308,44.058 1.411,8.396 6.759,16.062 6.759,16.062 25.738,54.119 -25.777,19.586 -25.777,19.586"
             style="fill:#383838;fill-opacity:1;fill-rule:nonzero;stroke:none"
             id="path76" />
        </g>
        <g
           id="g78"
           transform="translate(516.9854,590.5459)">
          <path
             d="M 0,0 C 0.038,-0.006 0.075,-0.011 0.112,-0.016 0.077,-0.011 0.039,-0.006 0,0 m -0.796,0.107 c 0.133,-0.018 0.283,-0.039 0.449,-0.061 -0.149,0.02 -0.3,0.041 -0.449,0.061 M -1.42,0.191 C -1.353,0.183 -1.276,0.173 -1.187,0.159 -1.271,0.171 -1.35,0.183 -1.42,0.191 m -0.253,0.035 c 0.041,-0.005 0.1,-0.014 0.186,-0.026 -0.08,0.011 -0.142,0.02 -0.186,0.026 m 2.178,-0.295 c 0.04,-0.005 0.076,-0.01 0.117,-0.016 -0.031,0.004 -0.07,0.01 -0.117,0.016 m 36.154,-113.936 c 0,0 18.365,95.818 -8.756,136.401 0,0 1.583,18.104 -19.953,33.811 0,0 -13.332,42.553 -67.867,70.95 0,0 -86.175,82.84 -276.977,15.761 0,0 -182.212,-47.503 -111.516,-347.881 0,0 40.069,-125.109 74.652,-144.319 0,0 1.374,16.445 5.055,26.541 0,0 -38.111,35.15 -54.561,82.009 0,0 -18.475,35.78 2.298,52.564 0,0 25.119,17.84 47.316,-12.894 0,0 6.83,-11.923 9.174,-17.729 0.353,-0.874 0.492,-1.51 0.848,-1.911 0,0 0.531,-0.424 1.972,-1.756 4.458,-4.124 15.959,-17.502 35.389,-57.915 0.834,-4.642 1.409,-6.889 2.242,-12.209 l 29.442,24.672 c 0,0 -5.512,58.031 -6.521,72.282 0,0 -1.395,18.581 18.675,24.484 1.73,0.51 4.172,0.972 5.682,1.226 0,0 1.749,0.539 5.598,2.406 15.257,7.401 54.561,28.436 30.263,48.879 0,0 -14.124,21.19 -6.448,25.587 0,0 48.828,-21.961 127.304,27.255 0,0 105.543,66.61 120.722,65.696 0,0 39.368,-58.777 27.804,-118.196 0,0 3.565,-26.977 8.163,4.286"
             style="fill:#383838;fill-opacity:1;fill-rule:nonzero;stroke:none"
             id="path80" />
        </g>
      </g>
    </g>
  </g>
</svg>
